<svg xmlns="http://www.w3.org/2000/svg" xmlns:xlink="http://www.w3.org/1999/xlink" viewBox="0 0 445.75 51.05">
    <defs >
        <style>.cls-1{fill:url(#tirandoaverde);}.cls-2{fill:url(#tirandoaverde);}.cls-3{fill:url(#tirandoaverde);}.cls-4{fill:url(#tirandoaverde);}.cls-5{fill:url(#tirandoaverde);}.cls-6{fill:url(#tirandoaverde);}.cls-7{fill:url(#tirandoaverde);}.cls-8{fill:url(#tirandoaverde);}.cls-9{fill:url(#tirandoaverde);}.cls-10{fill:url(#tirandoaverde);}.cls-11{fill:url(#tirandoaverde);}.cls-12{fill:url(#tirandoaverde);}.cls-13{fill:url(#tirandoaverde);}</style>
        <linearGradient id="tirandoaverde" x1="20.49" y1="25.33" x2="463.12" y2="30.59" gradientUnits="userSpaceOnUse">
            <stop offset="0.14" stop-color="#389236" />
            <stop offset="0.25" stop-color="#509e39" />
            <stop offset="0.49" stop-color="#8ebc40" />
            <stop offset="0.56" stop-color="#a1c642" />
            <stop offset="0.72" stop-color="#b9d449" />
            <stop offset="0.99" stop-color="#edf257" />
        </linearGradient>
    </defs>
    <path class="cls-1" d="M.77,0Q9.64.95,11.18,1H16.1Q20.18,1,25,.77q13.26.75,16.1,1.13l.18.39V3l-.74.78q-12.51-1-18.6-.95H19.72V3q0,2.36,1.34,20.22.18-7.21,9.28-12.8V11c-.14,3.92-.21,7-.21,9.29v.38q0,5.77-7.21,11.18c-.23,0-.35-.13-.35-.39V30.9a26.37,26.37,0,0,1,2.07-11l1.48-3-1.69,2.84a31.53,31.53,0,0,0-3,10q.56,5.34.95,16.14a5.93,5.93,0,0,1-1.9,4.53h-.17c-.22,0-.47-.25-.78-.77a25,25,0,0,0,.39-4V44.33c0-2.29-1.4-3.81-4.19-4.53-.86-.52-1.3-.84-1.3-.95.26-.78.58-1.22.95-1.34h.95a6.6,6.6,0,0,1,3.2,1.34v-.56q-.07-9.64-1.26-11.64A19.84,19.84,0,0,0,15.5,23l1.38,1.79a15.92,15.92,0,0,1,1.89,4.57q-.21,0-.21.18-4.32-1.83-5.48-4.93l-1.34-5.13H12c3.17,1.15,5.31,2.86,6.44,5.13a74.3,74.3,0,0,1-.78-10.44A42.56,42.56,0,0,0,16.8,3.09L9.84,3C3.28,2.77,0,2.2,0,1.34V.56C0,.26.26.07.77,0Z"/>
    <path class="cls-2" d="M51.08,14.41h.85c.21,0,.48.27.8.81V21H53c.6-1.36,2.26-2.52,4.95-3.48l.39.6v.21q-5.77,5.13-5.77,6.61a5.27,5.27,0,0,0-.38,2.25v7q0,4.92.21,15.44l-.85.63h-.8c-.22,0-.5-.27-.85-.81q-.14-13.18-.39-13.18Q43.88,33.14,43.88,28q-.29,0-.81-3.9h.21q6.18,2.93,6.18,6.4h.18q.63-9.74.63-15Q50.66,14.49,51.08,14.41ZM47.81,29.85v.21a13.65,13.65,0,0,1,1.65,5.76h.18V34A25.31,25.31,0,0,0,48,29.85ZM51.5,4.11h.85c1.33,0,2.08,1,2.25,3.1q-.68,2.25-4.33,2.25h-.42a.34.34,0,0,1-.39-.39q.39,0,.39-.42V8.44a1.92,1.92,0,0,1-.6.42V8.44A5,5,0,0,1,51.5,4.11Z" />
    <path class="cls-3" d="M81.6,14.27h1q3.17,0,3.73,5.66v3.94c0,1.17-.46,1.76-1.37,1.76q-.52,0-1-6.47C83.18,17.73,82.21,17,81,17h-.43c-1.75,0-4,.78-6.64,2.35l-.49.35A8.62,8.62,0,0,1,76.71,19a10.57,10.57,0,0,1,5.1,1.38Q75.87,25,73.9,25.24H73c-.23,0-1.68-.2-4.36-.6l.25-.21A15.78,15.78,0,0,1,75,21.13l2-.6-2.22.39a16,16,0,0,0-7,3.72c-.42.17-1.21,1.34-2.35,3.52V49.25c0,.66-.19,1-.57,1.16h-1l-.39-.21c-.07-1.78-.12-3.37-.14-4.78q-.56-3.93-3.23-5.06c.54-1.24,1.59-1.2,3.16.14v-11q0-14.27.77-14.27h.22c1,0,1.54,1.17,1.54,3.51v4.12A28.3,28.3,0,0,1,81.6,14.27Z" />
    <path class="cls-4" d="M107.89,14.45h1.41a14.51,14.51,0,0,1,8.9,3.44,1.58,1.58,0,0,1,.21.81Q117,20.5,117,31.82v2.84q0,6.69,3.83,15.37c0,.26-.14.38-.42.38h-.18q-1.61-.87-4.67-4.85Q107.69,50,104.06,50h-1.23Q93,50,90.91,40.32a27,27,0,0,1-.59-5.27V32.62l1.19-8.68v-.39l-.17-1.89a28.67,28.67,0,0,1-1,6.92l-.18.92a11.11,11.11,0,0,1-1.69-5,19.75,19.75,0,0,1,1.27-8.47c2,1.59,3,4.09,3,7.48l-.14,1,.35-.84Q98.86,14.44,107.89,14.45ZM93,30.83V31c.43-1.6,1.71-3.44,3.87-5.52a10.9,10.9,0,0,1,6.82-3.38H104q-3.72,11.12-5.2,11.11a15.63,15.63,0,0,1-6.08,3.62l0-.38c.38-2.16,1.65-4.78,3.83-7.88l1-1.37q-4.08,4.32-5,7.63v1q0,7.3,5.45,10.93a20.12,20.12,0,0,0,5.48,1q5.63,0,11.5-5.24a1.53,1.53,0,0,1,.21-.81q-.56-12.13-1.4-12.13,0-.32-4.47-4v-.21l.6-.81q1.78,0,4.85,3.23V26.58a42.24,42.24,0,0,1,.74-7.24q-3.34-2.68-6.19-2.68h-1.41q-6.52,0-12.93,8.69A21,21,0,0,0,93,30.83Z" />
    <path class="cls-5" d="M127.48,14.24h.77c.66,0,1,1.63,1,4.88q.22,0,.22,6.09v1.37c0,.26,0,.56,0,.91q4.85-9.1,11.32-11.88a6.31,6.31,0,0,1,2.74-.6h1q6.81,0,6.82,13.33v6.08q0,2,1.37,14.48v1.55c0,.19-.19.39-.56.6H151q-1,0-1.93-15.47V32.24h-.21Q146.1,35,143.93,35l-.39-.56v-.81q5.07-2.67,5.07-4.29A5.65,5.65,0,0,0,149.2,27q-.49-9.21-4.11-9.21c0-.11-.26-.17-.77-.17h-.78q-8.14,0-13.92,15.26a12.25,12.25,0,0,0-.77,3.12v.74c.14-2.08,1.77-4.29,4.88-6.61,2-1.31,3.33-2,3.94-2q-.21,14.07-8.61,16.07,0-3.12,2.74-9c-.91.77-2,3.17-3.34,7.17v1.06a53.06,53.06,0,0,0,.39,5.66c0,.8-.46,1.19-1.37,1.19h-.21c-.52-.28-.78-.61-.78-1-.26-3.35-.38-5.64-.38-6.86V41.27q0-2.88,1-18.42c-.14-2.9-.21-5.65-.21-8.23Z" />
    <path class="cls-6" d="M184.64.07h.21q.39.07.39.42V2.92q-.68,4-.56,25V30.2a152.3,152.3,0,0,0,1.23,19.37l-.43.21h-.59q-.85-.42-2.68-4.08-6.53,4.89-10.79,4.89h-2.25q-10.2,0-14.27-11.43a17.76,17.76,0,0,1-.42-3.86,99.14,99.14,0,0,1,1.23-12.45,26.51,26.51,0,0,0-1.23-6.75h.42a11.46,11.46,0,0,1,2.28,7l.36-.67q4.74-7.56,13.25-7.56,5.63,0,11,5.1l.17.21Q182,1.89,184.64.07ZM157.11,34.66l.18,1.55c.16-1.73,1.41-4.36,3.73-7.87v-.18A15.43,15.43,0,0,0,157.11,34.66Zm.43-4.28L157.32,32l.43-1.37a12.12,12.12,0,0,1,5.09-7.14,29.51,29.51,0,0,1,5.31-2v.21q-2.53,10.3-5.73,12.45-4.24,2.46-5.1,2.46,0,7.3,8.79,11a20.18,20.18,0,0,0,4.08.42q6.23,0,11.64-5.13A11.47,11.47,0,0,0,182,41v-.21q0-7.2-4.88-8.54-2-1.13-2-1.44v-.42q0-.28.63-.6h.39q2.21,0,5.73,3.27c.12-1.36.17-2.38.17-3.06V28.16q0-6.89-8.75-10.62l-2.46-.21q-6.64,0-12,8.58A45.18,45.18,0,0,0,157.54,30.38Z" />
    <path class="cls-7" d="M203.27,14.45h1.44q8.16,0,10.69,11.92a16,16,0,0,1,.42,3.9v2.67a18.44,18.44,0,0,1-8,15.82,10.42,10.42,0,0,1-5.56,1.65h-2q-7.49,0-11.74-10a21,21,0,0,1-.81-5.34v-2.5q0-10.05,9-16.63A18.38,18.38,0,0,1,203.27,14.45ZM190.12,32.13v.21h.22q1.4-5.13,4.53-7.41,1.73-1.45,6.79-2.89Q198,34.39,196.1,34.38q-.94,1-5.76,3.31c0,2.43,1.51,5.11,4.53,8a10.06,10.06,0,0,0,5.94,2h1q5,0,9.88-6.57a11.27,11.27,0,0,0,1.23-4.54v-.21q-3.8,5.88-7.8,2.29v-.42q-.15-1.12,3.6-1c2.5.07,4-1.93,4.62-6q0-9.88-5.13-13.15a9.06,9.06,0,0,0-3.9-1h-1.44Q192.72,17.12,190.12,32.13Zm0,3.06v2.08q.23-2.93,4.54-8.83l1.48-2.18Q190.76,32.28,190.12,35.19Z" />
    <path class="cls-8" d="M255,14.45h1.41a14.48,14.48,0,0,1,8.89,3.44,1.58,1.58,0,0,1,.21.81q-1.41,1.8-1.41,13.12v2.84q0,6.69,3.84,15.37c0,.26-.14.38-.43.38h-.17q-1.62-.87-4.68-4.85Q254.77,50,251.16,50h-1.23q-9.81,0-11.92-9.71a26.35,26.35,0,0,1-.6-5.27V32.62l1.2-8.68v-.39l-.18-1.89a28.67,28.67,0,0,1-1,6.92l-.18.92a11.09,11.09,0,0,1-1.68-5,19.73,19.73,0,0,1,1.26-8.47c2,1.59,3,4.09,3,7.48l-.14,1,.35-.84Q245.95,14.44,255,14.45ZM240.05,30.83V31q.63-2.4,3.86-5.52a10.9,10.9,0,0,1,6.82-3.38h.36q-3.74,11.12-5.21,11.11a15.56,15.56,0,0,1-6.08,3.62l0-.38c.37-2.16,1.65-4.78,3.83-7.88l1-1.37q-4.08,4.32-5,7.63v1q0,7.3,5.45,10.93a20.28,20.28,0,0,0,5.49,1q5.63,0,11.5-5.24a1.53,1.53,0,0,1,.21-.81q-.57-12.13-1.41-12.13,0-.32-4.46-4v-.21l.59-.81q1.8,0,4.85,3.23V26.58a42.24,42.24,0,0,1,.74-7.24c-2.22-1.79-4.29-2.68-6.18-2.68H255q-6.54,0-12.94,8.69A20.67,20.67,0,0,0,240.05,30.83Z" />
    <path class="cls-9" d="M321.12.18h.56c.19,0,.38.18.56.56v.74q-3.23,4.35-8.58,21.2a54.46,54.46,0,0,0-2.21,5.76h.18a9.64,9.64,0,0,1,4.11-1.09h.91a1.55,1.55,0,0,1,1.48.92v.38q0,.6-5.56,1.3c-1.89,1-3.82,4.83-5.76,11.53a57.44,57.44,0,0,1-4.29,9.11h-.74q-1.15,0-5.76-15.26,0-1.86-3.17-5l-1.37-1q3.69,3.87,4.15,6h-.18q-1.76,0-5-2.42a53.52,53.52,0,0,1-3.17-6.51c.12,0,.18-.06.18-.17,2.9.51,4.9,1.38,6,2.6a4.88,4.88,0,0,1,1.09,1.86h.22v-.17Q287.27,4,287.26,1.3V1.09L288,.56h.39q.71,0,4.46,13.4l3.9,15h.18q0-8.61,4.64-11.7c0-.19,1.06-1.06,3.16-2.6h.39v2.21q0,3.24.18,8.37,0,4.11-6.33,9.49h-.18v-.18c-.11-1.26-.17-2.26-.17-3a24.42,24.42,0,0,1,1.65-8.37l.81-1.9-1,1.72a22.65,22.65,0,0,0-2.21,9.11q2.53,9.6,4.46,13.22.26,0,3.52-10.62,8-20.18,12.27-32C319.11,1,320.11.18,321.12.18Z" />
    <path class="cls-10" d="M327,14.45a18.89,18.89,0,0,1,1.79,4.78l-.21,1.58q4.6-5.16,10.13-5.17h1.19q9.78,0,11.53,5.56a1.9,1.9,0,0,1,.21,1v1q0,4.23-12.93,9.92l-11.92,6.36a13.08,13.08,0,0,0,6.57,7.17,4.84,4.84,0,0,0,2.36.78c-1.69-1.83-2.55-3.22-2.57-4.15v-.42q0-.28.6-.6h.39c2.43,3.44,4,5.17,4.78,5.17l2.56.59c5.7-1.07,8.55-2.66,8.55-4.74v-.6c0-1-1-2-3-3l-.42-1a1.94,1.94,0,0,1,1.79-1.41h.22c2.71,0,4.3,1.92,4.74,5.77v.77q0,3.45-8.72,6.19a24.66,24.66,0,0,1-3.79.38h-2q-10.34,0-14.31-9.35a14.82,14.82,0,0,1-.6-4.15v-2a22.61,22.61,0,0,1,1.58-8.54,7.62,7.62,0,0,1,.11-6A17.24,17.24,0,0,0,327,14.45Zm2.57,10v.17h.21q3.09-4.14,9.35-4.14a.15.15,0,0,0,.17.17q-4.21,11-12.51,11.53c.72-2,2.38-4.29,5-7h-.17q-5.38,3.76-5.38,9.53v.42c.09,1.06.22,1.58.39,1.58l20.67-11.32c1.59-1.52,2.39-2.65,2.39-3.37q0-2.19-5.94-4a21.87,21.87,0,0,0-2.81-.22h-2Q333.89,17.82,329.56,24.4Z" />
    <path class="cls-11" d="M376.7,14.27h1c2.11,0,3.36,1.89,3.73,5.66v3.94c0,1.17-.46,1.76-1.37,1.76q-.53,0-1-6.47c-.78-1.43-1.75-2.14-2.92-2.14h-.42q-2.64,0-6.65,2.35l-.49.35a8.62,8.62,0,0,1,3.23-.74,10.57,10.57,0,0,1,5.1,1.38Q371,25,369,25.24h-.91c-.24,0-1.69-.2-4.36-.6l.24-.21a15.75,15.75,0,0,1,6.09-3.3l2-.6-2.22.39a16,16,0,0,0-7,3.72c-.42.17-1.2,1.34-2.35,3.52V49.25c0,.66-.19,1-.56,1.16h-1l-.39-.21c-.07-1.78-.11-3.37-.14-4.78q-.56-3.93-3.23-5.06c.54-1.24,1.59-1.2,3.16.14v-11q0-14.27.78-14.27h.21c1,0,1.54,1.17,1.54,3.51v4.12A28.3,28.3,0,0,1,376.7,14.27Z" />
    <path class="cls-12" d="M413.33.07h.21q.39.07.39.42V2.92q-.68,4-.56,25V30.2a152.3,152.3,0,0,0,1.23,19.37l-.42.21h-.6q-.84-.42-2.67-4.08-6.54,4.89-10.8,4.89h-2.25q-10.19,0-14.27-11.43a17.76,17.76,0,0,1-.42-3.86,99.14,99.14,0,0,1,1.23-12.45,26.51,26.51,0,0,0-1.23-6.75h.42a11.54,11.54,0,0,1,2.29,7l.35-.67q4.74-7.56,13.25-7.56,5.63,0,11,5.1l.18.21Q410.73,1.89,413.33.07ZM385.81,34.66l.17,1.55c.17-1.73,1.41-4.36,3.73-7.87v-.18A15.31,15.31,0,0,0,385.81,34.66Zm.42-4.28L386,32l.42-1.37a12.17,12.17,0,0,1,5.1-7.14,29,29,0,0,1,5.3-2v.21q-2.52,10.3-5.73,12.45-4.25,2.46-5.09,2.46,0,7.3,8.79,11a20,20,0,0,0,4.07.42q6.22,0,11.64-5.13A11.64,11.64,0,0,0,410.7,41v-.21q0-7.2-4.89-8.54-2-1.13-2-1.44v-.42q0-.28.63-.6h.39q2.22,0,5.73,3.27.18-2,.18-3.06V28.16q0-6.89-8.76-10.62l-2.46-.21q-6.64,0-12,8.58C387,27.18,386.63,28.66,386.23,30.38Z" />
    <path class="cls-13" d="M419.34,14.45a18.63,18.63,0,0,1,1.8,4.78l-.21,1.58q4.6-5.16,10.12-5.17h1.2q9.76,0,11.53,5.56a1.9,1.9,0,0,1,.21,1v1q0,4.23-12.94,9.92l-11.92,6.36a13.13,13.13,0,0,0,6.58,7.17,4.81,4.81,0,0,0,2.35.78c-1.68-1.83-2.54-3.22-2.56-4.15v-.42c0-.19.2-.39.59-.6h.39c2.44,3.44,4,5.17,4.78,5.17l2.57.59c5.69-1.07,8.54-2.66,8.54-4.74v-.6c0-1-1-2-2.95-3l-.42-1a1.93,1.93,0,0,1,1.79-1.41H441q4.08,0,4.75,5.77v.77q0,3.45-8.72,6.19a24.77,24.77,0,0,1-3.8.38h-2q-10.33,0-14.31-9.35a15.19,15.19,0,0,1-.59-4.15v-2a22.42,22.42,0,0,1,1.58-8.54,7.62,7.62,0,0,1,.1-6A17.24,17.24,0,0,0,419.34,14.45Zm2.57,10v.17h.21q3.09-4.14,9.35-4.14c0,.11.06.17.18.17q-4.22,11-12.52,11.53a21.88,21.88,0,0,1,5-7h-.18q-5.37,3.76-5.37,9.53v.42c.09,1.06.22,1.58.38,1.58l20.67-11.32c1.6-1.52,2.39-2.65,2.39-3.37q0-2.19-5.94-4a21.74,21.74,0,0,0-2.81-.22h-2Q426.24,17.82,421.91,24.4Z" />


</svg>